<mxfile host="drawio-plugin" modified="2022-09-25T06:50:38.194Z" agent="5.0 (Macintosh; Intel Mac OS X 10_15_7) AppleWebKit/537.36 (KHTML, like Gecko) Chrome/98.0.4758.102 Safari/537.36" etag="3UikEgTcqHrhkYPHkpMR" version="15.5.4" type="embed"><diagram id="C5RBs43oDa-KdzZeNtuy" name="Page-1"><mxGraphModel dx="530" dy="455" grid="1" gridSize="10" guides="1" tooltips="1" connect="1" arrows="1" fold="1" page="1" pageScale="1" pageWidth="827" pageHeight="1169" math="0" shadow="0"><root><mxCell id="WIyWlLk6GJQsqaUBKTNV-0"/><mxCell id="WIyWlLk6GJQsqaUBKTNV-1" parent="WIyWlLk6GJQsqaUBKTNV-0"/><mxCell id="s5dN2E0NdhGlkaAE_8GP-2" value="" style="edgeStyle=orthogonalEdgeStyle;rounded=0;orthogonalLoop=1;jettySize=auto;html=1;" parent="WIyWlLk6GJQsqaUBKTNV-1" source="WIyWlLk6GJQsqaUBKTNV-3" target="s5dN2E0NdhGlkaAE_8GP-1" edge="1"><mxGeometry relative="1" as="geometry"/></mxCell><mxCell id="s5dN2E0NdhGlkaAE_8GP-17" style="edgeStyle=orthogonalEdgeStyle;rounded=0;orthogonalLoop=1;jettySize=auto;html=1;exitX=0.5;exitY=1;exitDx=0;exitDy=0;entryX=0.5;entryY=0;entryDx=0;entryDy=0;" parent="WIyWlLk6GJQsqaUBKTNV-1" source="WIyWlLk6GJQsqaUBKTNV-3" target="s5dN2E0NdhGlkaAE_8GP-5" edge="1"><mxGeometry relative="1" as="geometry"/></mxCell><mxCell id="WIyWlLk6GJQsqaUBKTNV-3" value="is SSID in DB?" style="rounded=1;whiteSpace=wrap;html=1;fontSize=12;glass=0;strokeWidth=1;shadow=0;" parent="WIyWlLk6GJQsqaUBKTNV-1" vertex="1"><mxGeometry x="120" y="80" width="160" height="40" as="geometry"/></mxCell><mxCell id="s5dN2E0NdhGlkaAE_8GP-33" style="edgeStyle=orthogonalEdgeStyle;rounded=0;orthogonalLoop=1;jettySize=auto;html=1;" parent="WIyWlLk6GJQsqaUBKTNV-1" source="WIyWlLk6GJQsqaUBKTNV-7" target="s5dN2E0NdhGlkaAE_8GP-27" edge="1"><mxGeometry relative="1" as="geometry"/></mxCell><mxCell id="WIyWlLk6GJQsqaUBKTNV-7" value="1. Create new Device&lt;br&gt;2. Notify admins about new Device" style="rounded=1;whiteSpace=wrap;html=1;fontSize=12;glass=0;strokeWidth=1;shadow=0;" parent="WIyWlLk6GJQsqaUBKTNV-1" vertex="1"><mxGeometry x="320" y="160" width="160" height="60" as="geometry"/></mxCell><mxCell id="s5dN2E0NdhGlkaAE_8GP-0" value="Yes" style="text;html=1;strokeColor=none;fillColor=none;align=center;verticalAlign=middle;whiteSpace=wrap;rounded=0;" parent="WIyWlLk6GJQsqaUBKTNV-1" vertex="1"><mxGeometry x="192" y="134" width="60" height="12" as="geometry"/></mxCell><mxCell id="s5dN2E0NdhGlkaAE_8GP-1" value="Return &quot;Unknown SSID&quot;" style="rounded=1;whiteSpace=wrap;html=1;" parent="WIyWlLk6GJQsqaUBKTNV-1" vertex="1"><mxGeometry x="320" y="80" width="160" height="40" as="geometry"/></mxCell><mxCell id="s5dN2E0NdhGlkaAE_8GP-4" value="No" style="text;html=1;align=center;verticalAlign=middle;resizable=0;points=[];autosize=1;strokeColor=none;fillColor=none;" parent="WIyWlLk6GJQsqaUBKTNV-1" vertex="1"><mxGeometry x="280" y="75" width="40" height="30" as="geometry"/></mxCell><mxCell id="s5dN2E0NdhGlkaAE_8GP-11" style="edgeStyle=orthogonalEdgeStyle;rounded=0;orthogonalLoop=1;jettySize=auto;html=1;exitX=1;exitY=0.5;exitDx=0;exitDy=0;" parent="WIyWlLk6GJQsqaUBKTNV-1" source="s5dN2E0NdhGlkaAE_8GP-5" edge="1"><mxGeometry relative="1" as="geometry"><mxPoint x="320" y="180" as="targetPoint"/></mxGeometry></mxCell><mxCell id="s5dN2E0NdhGlkaAE_8GP-18" style="edgeStyle=orthogonalEdgeStyle;rounded=0;orthogonalLoop=1;jettySize=auto;html=1;exitX=0.5;exitY=1;exitDx=0;exitDy=0;entryX=0.5;entryY=0;entryDx=0;entryDy=0;" parent="WIyWlLk6GJQsqaUBKTNV-1" source="s5dN2E0NdhGlkaAE_8GP-5" target="s5dN2E0NdhGlkaAE_8GP-12" edge="1"><mxGeometry relative="1" as="geometry"/></mxCell><mxCell id="s5dN2E0NdhGlkaAE_8GP-5" value="is MAC in DB?" style="rounded=1;whiteSpace=wrap;html=1;" parent="WIyWlLk6GJQsqaUBKTNV-1" vertex="1"><mxGeometry x="120" y="160" width="160" height="40" as="geometry"/></mxCell><mxCell id="s5dN2E0NdhGlkaAE_8GP-14" style="edgeStyle=orthogonalEdgeStyle;rounded=0;orthogonalLoop=1;jettySize=auto;html=1;exitX=0.5;exitY=1;exitDx=0;exitDy=0;entryX=0.5;entryY=0;entryDx=0;entryDy=0;" parent="WIyWlLk6GJQsqaUBKTNV-1" source="s5dN2E0NdhGlkaAE_8GP-12" target="s5dN2E0NdhGlkaAE_8GP-13" edge="1"><mxGeometry relative="1" as="geometry"/></mxCell><mxCell id="s5dN2E0NdhGlkaAE_8GP-28" style="edgeStyle=orthogonalEdgeStyle;rounded=0;orthogonalLoop=1;jettySize=auto;html=1;exitX=1;exitY=0.5;exitDx=0;exitDy=0;entryX=0;entryY=0.5;entryDx=0;entryDy=0;" parent="WIyWlLk6GJQsqaUBKTNV-1" source="s5dN2E0NdhGlkaAE_8GP-12" target="s5dN2E0NdhGlkaAE_8GP-27" edge="1"><mxGeometry relative="1" as="geometry"/></mxCell><mxCell id="s5dN2E0NdhGlkaAE_8GP-12" value="Does Device has open Session?&amp;nbsp;" style="rounded=1;whiteSpace=wrap;html=1;" parent="WIyWlLk6GJQsqaUBKTNV-1" vertex="1"><mxGeometry x="120" y="281" width="160" height="40" as="geometry"/></mxCell><mxCell id="s5dN2E0NdhGlkaAE_8GP-22" style="edgeStyle=orthogonalEdgeStyle;rounded=0;orthogonalLoop=1;jettySize=auto;html=1;exitX=0.5;exitY=1;exitDx=0;exitDy=0;entryX=0.5;entryY=0;entryDx=0;entryDy=0;" parent="WIyWlLk6GJQsqaUBKTNV-1" source="s5dN2E0NdhGlkaAE_8GP-13" target="s5dN2E0NdhGlkaAE_8GP-21" edge="1"><mxGeometry relative="1" as="geometry"/></mxCell><mxCell id="s5dN2E0NdhGlkaAE_8GP-25" style="edgeStyle=orthogonalEdgeStyle;rounded=0;orthogonalLoop=1;jettySize=auto;html=1;exitX=1;exitY=0.5;exitDx=0;exitDy=0;entryX=0;entryY=0.5;entryDx=0;entryDy=0;" parent="WIyWlLk6GJQsqaUBKTNV-1" source="s5dN2E0NdhGlkaAE_8GP-13" target="s5dN2E0NdhGlkaAE_8GP-24" edge="1"><mxGeometry relative="1" as="geometry"/></mxCell><mxCell id="s5dN2E0NdhGlkaAE_8GP-13" value="Is open Session' SSID &lt;br&gt;equal to Request' SSID?" style="rounded=1;whiteSpace=wrap;html=1;" parent="WIyWlLk6GJQsqaUBKTNV-1" vertex="1"><mxGeometry x="120" y="361" width="160" height="40" as="geometry"/></mxCell><mxCell id="s5dN2E0NdhGlkaAE_8GP-15" value="Yes" style="text;html=1;strokeColor=none;fillColor=none;align=center;verticalAlign=middle;whiteSpace=wrap;rounded=0;" parent="WIyWlLk6GJQsqaUBKTNV-1" vertex="1"><mxGeometry x="193" y="325" width="60" height="30" as="geometry"/></mxCell><mxCell id="s5dN2E0NdhGlkaAE_8GP-19" value="Yes" style="text;html=1;strokeColor=none;fillColor=none;align=center;verticalAlign=middle;whiteSpace=wrap;rounded=0;" parent="WIyWlLk6GJQsqaUBKTNV-1" vertex="1"><mxGeometry x="192" y="230" width="60" height="22" as="geometry"/></mxCell><mxCell id="s5dN2E0NdhGlkaAE_8GP-20" value="No" style="text;html=1;align=center;verticalAlign=middle;resizable=0;points=[];autosize=1;strokeColor=none;fillColor=none;" parent="WIyWlLk6GJQsqaUBKTNV-1" vertex="1"><mxGeometry x="280" y="154" width="40" height="30" as="geometry"/></mxCell><mxCell id="s5dN2E0NdhGlkaAE_8GP-21" value="1. Update device IP&lt;br&gt;2. Update last online time" style="rounded=1;whiteSpace=wrap;html=1;" parent="WIyWlLk6GJQsqaUBKTNV-1" vertex="1"><mxGeometry x="120" y="440" width="160" height="40" as="geometry"/></mxCell><mxCell id="s5dN2E0NdhGlkaAE_8GP-23" value="Yes" style="text;html=1;strokeColor=none;fillColor=none;align=center;verticalAlign=middle;whiteSpace=wrap;rounded=0;" parent="WIyWlLk6GJQsqaUBKTNV-1" vertex="1"><mxGeometry x="193" y="407" width="60" height="30" as="geometry"/></mxCell><mxCell id="s5dN2E0NdhGlkaAE_8GP-30" style="edgeStyle=orthogonalEdgeStyle;rounded=0;orthogonalLoop=1;jettySize=auto;html=1;exitX=0.5;exitY=0;exitDx=0;exitDy=0;entryX=0.5;entryY=1;entryDx=0;entryDy=0;" parent="WIyWlLk6GJQsqaUBKTNV-1" source="s5dN2E0NdhGlkaAE_8GP-24" target="s5dN2E0NdhGlkaAE_8GP-27" edge="1"><mxGeometry relative="1" as="geometry"/></mxCell><mxCell id="s5dN2E0NdhGlkaAE_8GP-24" value="Close opened Session" style="rounded=1;whiteSpace=wrap;html=1;" parent="WIyWlLk6GJQsqaUBKTNV-1" vertex="1"><mxGeometry x="320" y="361" width="160" height="39" as="geometry"/></mxCell><mxCell id="s5dN2E0NdhGlkaAE_8GP-26" value="No" style="text;html=1;align=center;verticalAlign=middle;resizable=0;points=[];autosize=1;strokeColor=none;fillColor=none;" parent="WIyWlLk6GJQsqaUBKTNV-1" vertex="1"><mxGeometry x="280" y="355" width="40" height="30" as="geometry"/></mxCell><mxCell id="s5dN2E0NdhGlkaAE_8GP-27" value="Open new Session" style="rounded=1;whiteSpace=wrap;html=1;" parent="WIyWlLk6GJQsqaUBKTNV-1" vertex="1"><mxGeometry x="320" y="281" width="160" height="39" as="geometry"/></mxCell><mxCell id="s5dN2E0NdhGlkaAE_8GP-29" value="No" style="text;html=1;align=center;verticalAlign=middle;resizable=0;points=[];autosize=1;strokeColor=none;fillColor=none;" parent="WIyWlLk6GJQsqaUBKTNV-1" vertex="1"><mxGeometry x="280" y="274" width="40" height="30" as="geometry"/></mxCell></root></mxGraphModel></diagram></mxfile>